<?xml version="1.0" standalone="no"?><!DOCTYPE svg PUBLIC "-//W3C//DTD SVG 1.1//EN" "http://www.w3.org/Graphics/SVG/1.1/DTD/svg11.dtd"><svg t="1676288148456" class="icon" viewBox="0 0 1024 1024" version="1.1" xmlns="http://www.w3.org/2000/svg" p-id="3625" xmlns:xlink="http://www.w3.org/1999/xlink" width="200" height="200"><path d="M994.112 858.368L769.152 633.408C808.32 569.984 832 496 832 416 832 186.24 645.76 0 416 0S0 186.24 0 416 186.24 832 416 832c80 0 153.984-23.68 217.344-62.784l225.024 224.96a96.021333 96.021333 0 0 0 135.744-135.808zM416 704C256.96 704 128 575.04 128 416S256.96 128 416 128 704 256.96 704 416 575.04 704 416 704z" p-id="3626"></path></svg>